<?xml version="1.0" standalone="no"?>
<!DOCTYPE svg PUBLIC "-//W3C//DTD SVG 20010904//EN"
 "http://www.w3.org/TR/2001/REC-SVG-20010904/DTD/svg10.dtd">
<svg version="1.0" xmlns="http://www.w3.org/2000/svg"
 width="200.000000pt" height="200.000000pt" viewBox="0 0 200.000000 200.000000"
 preserveAspectRatio="xMidYMid meet">
<metadata>
Created by potrace 1.11, written by Peter Selinger 2001-2013
</metadata>
<g transform="translate(0.000000,200.000000) scale(0.100000,-0.100000)"
fill="#000000" stroke="none">
<path d="M300 1560 l0 -340 108 0 c157 0 153 2 146 -79 -6 -66 -6 -67 26 -94
87 -74 193 15 150 128 -9 23 -7 27 16 35 14 6 72 10 130 10 l104 0 0 94 0 95
-50 -1 c-79 -2 -138 52 -147 135 -11 92 70 176 158 164 l39 -5 0 99 0 99 -340
0 -340 0 0 -340z m480 170 c0 -13 -45 -65 -117 -138 -64 -64 -122 -126 -128
-137 -11 -21 -75 -48 -87 -36 -20 18 19 69 150 194 140 134 182 161 182 117z"/>
<path d="M660 1644 c-49 -48 -87 -91 -84 -96 7 -10 130 105 165 155 35 47 11
30 -81 -59z"/>
<path d="M541 1527 c-6 -8 -8 -17 -4 -20 7 -8 33 11 33 24 0 13 -16 11 -29 -4z"/>
<path d="M482 1478 c-16 -16 -15 -38 1 -38 17 0 37 20 37 37 0 16 -22 17 -38
1z"/>
<path d="M1038 1763 l-3 -128 -25 3 c-89 11 -111 7 -136 -21 -33 -38 -33 -96
0 -134 25 -29 39 -31 136 -21 l25 3 3 -128 3 -128 96 3 97 3 -2 45 c-5 82 61
150 146 150 52 0 91 -19 126 -60 21 -26 26 -42 26 -86 l0 -54 95 0 95 0 0 340
0 340 -340 0 -339 0 -3 -127z m433 -7 c69 -47 91 -151 47 -216 -39 -57 -72
-75 -137 -75 -48 0 -64 5 -95 29 -89 68 -86 206 6 265 48 30 132 29 179 -3z"/>
<path d="M1344 1735 c-9 -13 -18 -42 -21 -65 -5 -38 -4 -40 21 -40 25 0 26 1
26 65 0 36 -2 65 -5 65 -2 0 -12 -11 -21 -25z"/>
<path d="M1390 1696 c0 -64 1 -66 25 -66 20 0 25 5 25 25 0 30 -23 90 -39 99
-8 5 -11 -13 -11 -58z"/>
<path d="M1281 1715 c-17 -20 -31 -40 -31 -45 0 -4 -3 -15 -6 -24 -5 -12 0
-16 20 -16 15 0 28 6 30 13 13 48 24 102 22 105 -2 1 -17 -13 -35 -33z"/>
<path d="M1445 1734 c4 -11 12 -38 17 -61 8 -37 13 -43 35 -43 22 0 24 3 19
26 -9 35 -35 73 -59 86 -17 9 -19 8 -12 -8z"/>
<path d="M1246 1588 c10 -34 34 -67 57 -80 17 -9 19 -8 12 8 -4 11 -11 35 -14
54 -5 29 -11 36 -35 38 -25 3 -27 1 -20 -20z"/>
<path d="M1320 1590 c0 -26 25 -85 39 -94 8 -5 11 12 11 53 0 58 -1 61 -25 61
-18 0 -25 -5 -25 -20z"/>
<path d="M1390 1550 c0 -33 4 -60 9 -60 13 0 41 64 41 94 0 21 -5 26 -25 26
-24 0 -25 -3 -25 -60z"/>
<path d="M1458 1555 c-8 -30 -12 -55 -8 -55 10 0 60 59 60 70 0 5 3 15 6 24 5
12 0 16 -18 16 -21 0 -27 -8 -40 -55z"/>
<path d="M1301 1319 c-33 -33 -39 -66 -20 -116 17 -44 -6 -53 -138 -53 l-113
0 0 -95 0 -95 54 0 c45 0 60 -5 87 -27 112 -95 52 -273 -92 -273 l-49 0 0 -95
0 -95 340 0 340 0 0 340 0 340 -117 0 c-65 0 -124 4 -132 9 -9 6 -11 18 -6 42
14 63 8 92 -25 122 -43 38 -89 37 -129 -4z m159 -405 c0 -8 16 -14 43 -16 35
-2 43 -7 45 -25 2 -13 -3 -32 -12 -44 -13 -19 -13 -24 0 -45 9 -12 14 -33 12
-46 -2 -19 -10 -24 -43 -26 -32 -2 -43 -9 -57 -32 -22 -39 -54 -39 -76 0 -12
21 -25 30 -44 30 -58 0 -74 27 -43 74 14 21 14 26 -1 53 -25 43 -13 63 36 63
22 0 40 5 40 10 0 6 12 22 26 37 l25 25 25 -23 c13 -12 24 -28 24 -35z"/>
<path d="M1386 921 c-15 -28 -14 -29 8 -35 25 -6 56 1 56 13 0 12 -31 51 -40
51 -5 0 -16 -13 -24 -29z"/>
<path d="M1297 884 c-12 -12 -8 -41 8 -54 20 -17 47 5 43 34 -3 21 -37 34 -51
20z"/>
<path d="M1477 883 c-14 -13 -7 -43 13 -53 16 -9 22 -6 36 16 15 22 15 27 3
35 -17 10 -43 12 -52 2z"/>
<path d="M1382 844 c-30 -21 -28 -58 4 -79 23 -15 27 -15 50 0 34 22 33 68 -1
83 -32 15 -26 15 -53 -4z m48 -29 c15 -18 5 -35 -20 -35 -10 0 -22 5 -25 10
-7 11 12 40 25 40 4 0 13 -7 20 -15z"/>
<path d="M1400 800 c0 -5 5 -10 10 -10 6 0 10 5 10 10 0 6 -4 10 -10 10 -5 0
-10 -4 -10 -10z"/>
<path d="M1335 811 c-3 -5 -1 -12 5 -16 5 -3 10 1 10 9 0 18 -6 21 -15 7z"/>
<path d="M1302 778 c-16 -16 -15 -45 1 -51 21 -7 47 5 47 22 0 17 -18 41 -30
41 -3 0 -11 -5 -18 -12z"/>
<path d="M1482 778 c-31 -31 7 -70 44 -44 14 11 15 15 3 34 -16 25 -29 28 -47
10z"/>
<path d="M1383 724 c-9 -4 -9 -11 -1 -29 19 -42 45 -39 61 7 8 23 -26 35 -60
22z"/>
<path d="M290 820 l0 -340 339 0 339 0 4 124 c2 69 6 128 10 131 4 4 28 2 53
-4 38 -10 52 -9 79 4 58 28 74 102 32 148 -31 33 -69 43 -115 28 -54 -16 -61
0 -61 136 l0 113 -95 0 -95 0 0 -55 c0 -46 -4 -59 -30 -88 -39 -45 -79 -61
-135 -55 -85 10 -145 84 -132 164 l6 34 -100 0 -99 0 0 -340z m430 72 c91 -67
94 -190 8 -255 -67 -51 -149 -43 -208 18 -33 34 -35 40 -35 105 0 63 3 72 30
101 17 17 44 38 60 45 38 18 111 10 145 -14z"/>
<path d="M566 869 c-38 -30 -34 -55 10 -64 30 -5 41 -2 57 14 18 17 19 24 9
46 -14 30 -40 32 -76 4z"/>
<path d="M656 863 c12 -46 50 -65 84 -43 13 9 10 15 -18 40 -18 17 -41 30 -52
30 -17 0 -19 -4 -14 -27z"/>
<path d="M735 800 c-24 -8 -35 -47 -22 -77 19 -42 57 -16 57 39 0 33 -12 46
-35 38z"/>
<path d="M528 777 c-13 -24 7 -73 35 -89 18 -9 24 -6 43 17 18 23 20 32 11 55
-14 36 -72 48 -89 17z"/>
<path d="M501 745 c0 -21 28 -78 29 -59 0 7 -7 27 -15 45 -10 24 -14 28 -14
14z"/>
<path d="M621 701 c-20 -27 -20 -31 -5 -46 12 -11 25 -14 48 -10 43 9 58 30
44 61 -16 35 -61 33 -87 -5z"/>
<path d="M218 328 c16 -16 16 -200 0 -216 -9 -9 -4 -12 23 -11 18 0 28 3 22 6
-9 3 -13 36 -13 114 l0 109 28 0 c37 0 52 -17 52 -58 0 -28 -5 -36 -29 -45
l-29 -10 37 -48 c20 -26 49 -52 65 -58 36 -13 79 -14 71 -2 -3 5 0 21 6 35 10
22 19 26 55 26 34 0 46 -5 54 -21 7 -11 9 -27 6 -35 -4 -10 3 -14 26 -14 27 0
30 2 16 12 -9 7 -33 52 -54 101 -21 48 -41 87 -44 87 -3 0 -25 -43 -49 -95
-24 -52 -49 -95 -56 -95 -16 0 -38 19 -69 62 l-27 36 26 27 c21 20 25 32 20
53 -9 39 -32 52 -94 52 -43 0 -52 -3 -43 -12z m308 -93 c20 -49 18 -55 -22
-55 -30 0 -35 3 -29 18 4 9 12 29 17 45 5 15 12 27 14 27 3 0 12 -16 20 -35z"/>
<path d="M820 332 c0 -4 20 -6 45 -4 l45 4 0 -110 c0 -79 -4 -112 -12 -115 -7
-3 3 -6 21 -6 27 -1 32 2 23 11 -8 8 -12 48 -12 116 l0 104 45 -4 c25 -2 45 0
45 4 0 5 -45 8 -100 8 -55 0 -100 -3 -100 -8z"/>
<path d="M685 204 c-49 -101 -49 -104 -27 -104 13 0 21 4 17 10 -3 5 -3 21 1
35 6 22 11 25 55 25 43 0 49 -3 55 -24 3 -14 3 -30 -1 -35 -4 -7 6 -11 26 -11
30 0 31 1 17 18 -8 9 -31 55 -52 102 -21 47 -39 86 -40 87 0 0 -24 -46 -51
-103z m84 -16 c1 -5 -15 -8 -34 -8 -40 0 -41 6 -19 58 l16 37 18 -40 c10 -22
19 -43 19 -47z"/>
<path d="M1058 303 c8 -3 12 -33 12 -98 0 -65 -4 -95 -12 -98 -7 -3 -2 -6 12
-6 l25 -1 -3 100 c-3 96 -3 100 18 100 67 0 92 -68 33 -91 l-24 -9 37 -45 c20
-25 43 -45 51 -45 10 0 3 14 -20 42 l-34 41 25 22 c34 29 25 69 -19 84 -31 11
-127 15 -101 4z"/>
<path d="M1278 298 c16 -16 16 -170 0 -186 -9 -9 -4 -12 22 -11 19 0 29 3 23
6 -9 3 -13 33 -13 98 0 65 4 95 13 98 6 3 -4 6 -22 6 -27 1 -32 -2 -23 -11z"/>
<path d="M1418 294 c-15 -8 -32 -23 -38 -34 -13 -24 -13 -86 0 -111 15 -26 63
-49 102 -48 26 1 28 3 8 6 -59 9 -70 15 -85 43 -38 74 0 150 76 150 26 0 46
-7 59 -20 16 -16 20 -17 20 -5 0 33 -93 46 -142 19z"/>
<path d="M1625 205 c0 -104 0 -105 24 -105 19 0 21 3 11 14 -7 10 -10 45 -8
105 2 76 0 91 -12 91 -12 0 -15 -18 -15 -105z"/>
<path d="M1735 300 c3 -5 -10 -27 -30 -48 -19 -22 -35 -44 -35 -49 0 -13 82
-89 105 -97 11 -4 -3 17 -35 48 l-54 56 34 37 c19 20 42 43 50 50 13 10 11 12
-13 13 -16 0 -26 -4 -22 -10z"/>
<path d="M1543 133 c-12 -13 -19 -23 -14 -23 10 0 46 39 40 43 -2 2 -14 -7
-26 -20z"/>
</g>
</svg>
